<svg width="17" height="6" viewBox="0 0 17 6" fill="none" xmlns="http://www.w3.org/2000/svg">
<path d="M1 0.900391C1.13261 0.900391 1.25979 0.95307 1.35355 1.04684C1.44732 1.14061 1.5 1.26778 1.5 1.40039V3.90039C1.5 4.16561 1.60536 4.41996 1.79289 4.6075C1.98043 4.79503 2.23478 4.90039 2.5 4.90039H14.5C14.7652 4.90039 15.0196 4.79503 15.2071 4.6075C15.3946 4.41996 15.5 4.16561 15.5 3.90039V1.40039C15.5 1.26778 15.5527 1.14061 15.6464 1.04684C15.7402 0.95307 15.8674 0.900391 16 0.900391C16.1326 0.900391 16.2598 0.95307 16.3536 1.04684C16.4473 1.14061 16.5 1.26778 16.5 1.40039V3.90039C16.5 4.43082 16.2893 4.93953 15.9142 5.3146C15.5391 5.68968 15.0304 5.90039 14.5 5.90039H2.5C1.96957 5.90039 1.46086 5.68968 1.08579 5.3146C0.710714 4.93953 0.5 4.43082 0.5 3.90039V1.40039C0.5 1.26778 0.552678 1.14061 0.646447 1.04684C0.740215 0.95307 0.867392 0.900391 1 0.900391Z" fill="#737373"/>
</svg>
