<svg width="102" height="25" viewBox="0 0 102 25" fill="none" xmlns="http://www.w3.org/2000/svg">
<g clip-path="url(#clip0_2685_1503)">
<path d="M1.704 17.5V7.714H3.888V15.554H8.06V17.5H1.704ZM16.175 16.408C15.3257 17.2107 14.327 17.612 13.179 17.612C12.0404 17.612 11.0977 17.262 10.351 16.562C9.60436 15.8527 9.23103 14.9053 9.23103 13.72C9.23103 12.5347 9.60903 11.592 10.365 10.892C11.1304 10.192 12.031 9.842 13.067 9.842C14.103 9.842 14.9804 10.1547 15.699 10.78C16.427 11.4053 16.791 12.264 16.791 13.356V14.476H11.303C11.3684 14.8867 11.583 15.2227 11.947 15.484C12.311 15.7453 12.7217 15.876 13.179 15.876C13.9164 15.876 14.523 15.6287 14.999 15.134L16.175 16.408ZM14.663 12.978C14.6164 12.53 14.4484 12.1847 14.159 11.942C13.8697 11.6993 13.515 11.578 13.095 11.578C12.6844 11.578 12.3064 11.704 11.961 11.956C11.6157 12.208 11.415 12.5487 11.359 12.978H14.663ZM24.9033 17.5H22.9293V16.59C22.388 17.2713 21.716 17.612 20.9133 17.612C20.12 17.612 19.4527 17.3833 18.9113 16.926C18.37 16.4593 18.0993 15.8433 18.0993 15.078C18.0993 14.3033 18.3793 13.7247 18.9393 13.342C19.4993 12.9593 20.2647 12.768 21.2353 12.768H22.8033V12.726C22.8033 11.9233 22.3787 11.522 21.5293 11.522C21.1653 11.522 20.778 11.5967 20.3673 11.746C19.966 11.886 19.6253 12.0633 19.3453 12.278L18.4073 10.92C19.3967 10.2013 20.526 9.842 21.7953 9.842C22.71 9.842 23.4567 10.0707 24.0353 10.528C24.614 10.9853 24.9033 11.7087 24.9033 12.698V17.5ZM22.7893 14.63V14.266H21.4733C20.6333 14.266 20.2133 14.5273 20.2133 15.05C20.2133 15.3207 20.3113 15.5307 20.5073 15.68C20.7127 15.82 21.002 15.89 21.3753 15.89C21.7487 15.89 22.0753 15.778 22.3553 15.554C22.6447 15.3207 22.7893 15.0127 22.7893 14.63ZM30.9798 11.816C30.3545 11.816 29.8878 12.04 29.5798 12.488C29.2718 12.9267 29.1178 13.51 29.1178 14.238V17.5H27.0178V9.968H29.1178V10.962C29.3885 10.654 29.7245 10.3927 30.1258 10.178C30.5365 9.96333 30.9518 9.85133 31.3718 9.842L31.3858 11.816H30.9798ZM35.0737 13.3V17.5H32.9737V9.968H35.0737V10.808C35.7084 10.164 36.4224 9.842 37.2157 9.842C38.009 9.842 38.6717 10.122 39.2037 10.682C39.745 11.242 40.0157 11.9887 40.0157 12.922V17.5H37.9157V13.244C37.9157 12.0867 37.491 11.508 36.6417 11.508C36.2217 11.508 35.853 11.662 35.5357 11.97C35.2277 12.2687 35.0737 12.712 35.0737 13.3ZM54.9805 11.34L52.3345 16.688H51.0325L48.4005 11.34V17.5H46.2165V7.714H49.1705L51.6905 13.09L54.2245 7.714H57.1645V17.5H54.9805V11.34ZM61.2439 13.734C61.2439 14.35 61.4166 14.854 61.7619 15.246C62.1166 15.6287 62.5646 15.82 63.1059 15.82C63.6566 15.82 64.1046 15.6287 64.4499 15.246C64.8046 14.854 64.9819 14.35 64.9819 13.734C64.9819 13.118 64.8046 12.614 64.4499 12.222C64.1046 11.83 63.6566 11.634 63.1059 11.634C62.5646 11.634 62.1166 11.83 61.7619 12.222C61.4166 12.614 61.2439 13.118 61.2439 13.734ZM67.0959 13.734C67.0959 14.826 66.7179 15.7453 65.9619 16.492C65.2059 17.2387 64.2539 17.612 63.1059 17.612C61.9673 17.612 61.0199 17.2387 60.2639 16.492C59.5079 15.7453 59.1299 14.826 59.1299 13.734C59.1299 12.642 59.5079 11.7227 60.2639 10.976C61.0199 10.22 61.9673 9.842 63.1059 9.842C64.2539 9.842 65.2059 10.22 65.9619 10.976C66.7179 11.7227 67.0959 12.642 67.0959 13.734ZM72.8177 11.816C72.1924 11.816 71.7257 12.04 71.4177 12.488C71.1097 12.9267 70.9557 13.51 70.9557 14.238V17.5H68.8557V9.968H70.9557V10.962C71.2264 10.654 71.5624 10.3927 71.9637 10.178C72.3744 9.96333 72.7897 9.85133 73.2097 9.842L73.2237 11.816H72.8177ZM81.3356 16.408C80.4862 17.2107 79.4876 17.612 78.3396 17.612C77.2009 17.612 76.2582 17.262 75.5116 16.562C74.7649 15.8527 74.3916 14.9053 74.3916 13.72C74.3916 12.5347 74.7696 11.592 75.5256 10.892C76.2909 10.192 77.1916 9.842 78.2276 9.842C79.2636 9.842 80.1409 10.1547 80.8596 10.78C81.5876 11.4053 81.9516 12.264 81.9516 13.356V14.476H76.4636C76.5289 14.8867 76.7436 15.2227 77.1076 15.484C77.4716 15.7453 77.8822 15.876 78.3396 15.876C79.0769 15.876 79.6836 15.6287 80.1596 15.134L81.3356 16.408ZM79.8236 12.978C79.7769 12.53 79.6089 12.1847 79.3196 11.942C79.0302 11.6993 78.6756 11.578 78.2556 11.578C77.8449 11.578 77.4669 11.704 77.1216 11.956C76.7762 12.208 76.5756 12.5487 76.5196 12.978H79.8236Z" fill="#FF6551"/>
<g clip-path="url(#clip1_2685_1503)">
<path fill-rule="evenodd" clip-rule="evenodd" d="M92.6808 4.68077C92.7379 4.62347 92.8058 4.57801 92.8806 4.54699C92.9553 4.51597 93.0355 4.5 93.1164 4.5C93.1973 4.5 93.2775 4.51597 93.3522 4.54699C93.427 4.57801 93.4949 4.62347 93.5521 4.68077L100.936 12.0645C100.993 12.1217 101.039 12.1896 101.07 12.2643C101.101 12.3391 101.117 12.4192 101.117 12.5002C101.117 12.5811 101.101 12.6612 101.07 12.736C101.039 12.8107 100.993 12.8786 100.936 12.9358L93.5521 20.3196C93.4365 20.4351 93.2798 20.5 93.1164 20.5C92.953 20.5 92.7963 20.4351 92.6808 20.3196C92.5652 20.204 92.5003 20.0473 92.5003 19.8839C92.5003 19.7205 92.5652 19.5638 92.6808 19.4483L99.6301 12.5002L92.6808 5.55205C92.6235 5.4949 92.578 5.427 92.547 5.35224C92.516 5.27749 92.5 5.19735 92.5 5.11641C92.5 5.03548 92.516 4.95534 92.547 4.88058C92.578 4.80583 92.6235 4.73793 92.6808 4.68077Z" fill="#FF6551"/>
</g>
</g>
<defs>
<clipPath id="clip0_2685_1503">
<rect width="101" height="24" fill="white" transform="translate(0.5 0.5)"/>
</clipPath>
<clipPath id="clip1_2685_1503">
<rect width="9" height="16" fill="white" transform="translate(92.5 4.5)"/>
</clipPath>
</defs>
</svg>
