<svg width="41" height="40" viewBox="0 0 41 40" fill="none" xmlns="http://www.w3.org/2000/svg">
<path d="M0.5 20C0.5 8.95431 9.45431 0 20.5 0C31.5457 0 40.5 8.95431 40.5 20C40.5 31.0457 31.5457 40 20.5 40C9.45431 40 0.5 31.0457 0.5 20Z" fill="white"/>
<path d="M24.5303 12.8125H24.5312C25.111 12.8127 25.6851 12.9281 26.2197 13.1523C26.7545 13.3767 27.239 13.7055 27.6455 14.1191C28.4744 14.963 28.9385 16.0984 28.9385 17.2812C28.9385 18.4641 28.4744 19.5995 27.6455 20.4434L20.499 27.6797L13.3535 20.4434C12.5248 19.5996 12.0605 18.464 12.0605 17.2812C12.0605 16.0985 12.5248 14.9629 13.3535 14.1191C13.7601 13.7058 14.2455 13.3774 14.7803 13.1533C15.3149 12.9293 15.8891 12.8135 16.4688 12.8135C17.0485 12.8135 17.6226 12.9292 18.1572 13.1533C18.6919 13.3774 19.1765 13.7058 19.583 14.1191L19.584 14.1201L20.2773 14.8203L20.5 15.0439L20.7217 14.8203L21.415 14.1201L21.417 14.1191C21.823 13.7051 22.3071 13.3757 22.8418 13.1514C23.3764 12.9271 23.9505 12.8121 24.5303 12.8125ZM24.5312 13.4375C24.0321 13.4368 23.5377 13.5368 23.0781 13.7314C22.6193 13.9258 22.2039 14.2102 21.8574 14.5684L20.5 15.9521L19.1357 14.5566L19.1348 14.5557C18.787 14.2016 18.3718 13.9205 17.9141 13.7285C17.4563 13.5365 16.9651 13.4375 16.4688 13.4375C15.9722 13.4375 15.4803 13.5364 15.0225 13.7285C14.5647 13.9206 14.1496 14.2015 13.8018 14.5557C13.0878 15.2806 12.6875 16.2579 12.6875 17.2754C12.6876 18.2927 13.0879 19.2693 13.8018 19.9941H13.8027L20.2773 26.5508L20.5 26.7764L20.7217 26.5508L27.1973 19.9941C27.9113 19.2693 28.3114 18.2928 28.3115 17.2754C28.3115 16.2578 27.9114 15.2806 27.1973 14.5557C26.8497 14.2014 26.4352 13.9195 25.9775 13.7275C25.5197 13.5355 25.0277 13.4372 24.5312 13.4375Z" fill="#BDBDBD" stroke="#252B42" stroke-width="0.625"/>
</svg>
